# xmcd
#
# Track frame offsets: 
#        150
#        22112
#        46579
#        97591
#        106189
#        126442
#        151967
#        174846
#        196574
#        220695
#        242788
#        267547
#        288142
#
# Disc length: 4126 seconds
#
# Revision: 2
# Processed by: cddbd v1.5.2PL0 Copyright (c) Steve Scherf et al.
# Submitted via: ExactAudioCopy v1.3
#
DISCID=a0101c0d
DTITLE=Phil Collins - ...But Seriously 2CD Deluxe Edition Disc 2 WPCR-
DTITLE=17291-2
DYEAR=2016
DGENRE=Rock
TTITLE0=Hang In Long Enough [Live]
TTITLE1=Something Happened On The Way To Heaven [Live]
TTITLE2=Colours [Live]
TTITLE3=Saturday Night And Sunday Morning [Live]
TTITLE4=Always [Live]
TTITLE5=Find A Way To My Heart [Live]
TTITLE6=That's How I Feel [B-Side]
TTITLE7=You've Been In Love (That Little Bit Too Long) [B-Side]
TTITLE8=Another Day In Paradise [Demo]
TTITLE9=That's Just The Way It Is [Demo]
TTITLE10=I Wish It Would Rain Down [Demo]
TTITLE11=Hang In Long Enough [Demo]
TTITLE12=Do You Remember? [Demo]
EXTD=YEAR: 2016
EXTT0=
EXTT1=
EXTT2=
EXTT3=
EXTT4=
EXTT5=
EXTT6=
EXTT7=
EXTT8=
EXTT9=
EXTT10=
EXTT11=
EXTT12=
PLAYORDER=
